<?xml version="1.0" encoding="UTF-8" standalone="no"?>
<!-- Created with Inkscape (http://www.inkscape.org/) -->

<svg
   width="48"
   height="48"
   viewBox="0 0 48 48"
   version="1.1"
   id="svg5"
   inkscape:export-filename="Logo Rovercrop (SVG).svg"
   inkscape:export-xdpi="96"
   inkscape:export-ydpi="96"
   xml:space="preserve"
   inkscape:version="1.2.2 (732a01da63, 2022-12-09)"
   sodipodi:docname="Logo.svg"
   xmlns:inkscape="http://www.inkscape.org/namespaces/inkscape"
   xmlns:sodipodi="http://sodipodi.sourceforge.net/DTD/sodipodi-0.dtd"
   xmlns="http://www.w3.org/2000/svg"
   xmlns:svg="http://www.w3.org/2000/svg"><sodipodi:namedview
     id="namedview7"
     pagecolor="#505050"
     bordercolor="#eeeeee"
     borderopacity="1"
     inkscape:showpageshadow="0"
     inkscape:pageopacity="0"
     inkscape:pagecheckerboard="0"
     inkscape:deskcolor="#505050"
     inkscape:document-units="px"
     showgrid="false"
     inkscape:zoom="12.212323"
     inkscape:cx="24.155928"
     inkscape:cy="20.962432"
     inkscape:window-width="1920"
     inkscape:window-height="1009"
     inkscape:window-x="-8"
     inkscape:window-y="-8"
     inkscape:window-maximized="1"
     inkscape:current-layer="layer1" /><defs
     id="defs2" /><g
     inkscape:label="Layer 1"
     inkscape:groupmode="layer"
     id="layer1"><path
       style="fill:#000000;stroke-width:0.101202"
       d="M 22.771495,45.691527 C 22.694185,45.642667 22.412949,45.04019 22.146533,44.3527 l -0.484397,-1.24998 -0.185853,-0.03559 c -0.102221,-0.01958 -0.61861,-0.171238 -1.147534,-0.337033 -0.528925,-0.165795 -1.471706,-0.566821 -2.095072,-0.891171 l -1.133392,-0.58972 -1.214423,0.550311 c -0.667934,0.30267 -1.246841,0.550337 -1.286461,0.550372 -0.03962,3.5e-5 -0.634457,-0.554987 -1.321862,-1.23338 -0.687403,-0.678393 -1.249888,-1.307157 -1.249969,-1.397256 -7.8e-5,-0.09009 0.227116,-0.672661 0.504876,-1.294587 0.27776,-0.621928 0.504985,-1.169644 0.504944,-1.217146 -4.2e-5,-0.0475 -0.220378,-0.478558 -0.489637,-0.957901 -0.269257,-0.479347 -0.653683,-1.362956 -0.854276,-1.963583 -0.200593,-0.600625 -0.389884,-1.209216 -0.420641,-1.352422 l -0.05592,-0.260377 -1.2933195,-0.498752 -1.2933174,-0.498755 -0.00164,-1.869636 -0.00164,-1.869635 1.2924433,-0.501017 1.2924426,-0.501017 0.05496,-0.260473 c 0.03023,-0.14326 0.213978,-0.738789 0.408328,-1.3234 0.194349,-0.584611 0.524217,-1.381863 0.733042,-1.771672 0.208823,-0.389811 0.442392,-0.80892 0.519044,-0.931354 l 0.139363,-0.222611 -0.489441,-1.092707 C 12.307989,20.73122 12.064106,20.132568 12.035219,20.00187 l -0.05253,-0.23763 1.151208,-1.161582 c 0.633164,-0.63887 1.227593,-1.204011 1.320955,-1.255872 l 0.169747,-0.09429 1.24364,0.540865 1.24364,0.540864 1.015375,-0.537167 c 0.558458,-0.295442 1.334062,-0.652032 1.723565,-0.792422 0.389504,-0.140391 0.901694,-0.304691 1.138199,-0.365112 l 0.430012,-0.109852 -5.28e-4,-0.603308 -5.28e-4,-0.603311 -0.749996,6.56e-4 c -0.45878,4.01e-4 -0.995724,-0.07558 -1.382842,-0.1957 -0.348065,-0.107998 -0.868973,-0.358679 -1.157573,-0.557071 -0.288596,-0.198395 -0.671607,-0.543167 -0.851132,-0.766161 -0.179526,-0.222997 -0.446429,-0.666121 -0.593123,-0.984723 l -0.266712,-0.579277 -0.04331,-0.874304 -0.04331,-0.874303 0.174931,-0.542637 c 0.09621,-0.298449 0.311269,-0.759782 0.477911,-1.0251845 0.166643,-0.2654014 0.508425,-0.6637039 0.759519,-0.8851162 0.251096,-0.2214124 0.689658,-0.5154529 0.974585,-0.6534232 0.284926,-0.1379704 0.814022,-0.2979608 1.17577,-0.355534 0.361744,-0.057574 1.281299,-0.1055683 2.043454,-0.1066556 l 1.385734,-0.00198 0.02927,-2.083619 0.02927,-2.0836191 0.283735,-0.244295 c 0.156053,-0.1343623 0.398549,-0.2443955 0.538881,-0.2445183 0.147067,-1.288e-4 0.380561,0.1249747 0.551223,0.2953381 l 0.296079,0.2955613 0.0018,2.0318181 0.0018,2.031818 1.391522,-4.488e-4 c 0.765338,-2.447e-4 1.68758,0.046875 2.049427,0.1047192 0.361847,0.057846 0.897208,0.2139609 1.189692,0.3469241 0.292483,0.1329631 0.775688,0.4720176 1.073788,0.7534544 0.313629,0.2960969 0.676346,0.7778032 0.860845,1.1432415 0.17988,0.35629 0.353403,0.896156 0.398135,1.238681 0.04361,0.333927 0.04558,0.870585 0.0044,1.192569 -0.0412,0.321986 -0.169402,0.800277 -0.284856,1.062867 -0.115458,0.262592 -0.332875,0.656472 -0.48315,0.87529 -0.150278,0.21882 -0.539266,0.594384 -0.864422,0.834591 -0.33685,0.248846 -0.874545,0.524528 -1.249822,0.640798 -0.408167,0.126459 -0.943203,0.204307 -1.406978,0.204712 -0.411594,3.62e-4 -0.748335,0.02172 -0.748312,0.04746 2.3e-5,0.02575 0.02667,0.335413 0.0082,0.613182 l -0.01355,0.544618 0.994456,0.105753 c 0.325184,0.03458 0.976102,0.283121 1.459417,0.472836 0.483316,0.189716 1.242342,0.545637 1.686722,0.790932 l 0.807968,0.445996 1.217876,-0.551876 c 0.669833,-0.303532 1.250294,-0.551903 1.289914,-0.551939 0.03962,-3.4e-5 0.634459,0.554985 1.321863,1.23338 0.687402,0.678393 1.250599,1.304086 1.251549,1.390429 9.46e-4,0.08635 -0.229965,0.685823 -0.513138,1.33218 l -0.514861,1.175194 0.457571,0.848892 c 0.251662,0.466888 0.590959,1.190329 0.753989,1.607644 0.163031,0.417313 0.377425,1.062544 0.476428,1.43384 l 0.180011,0.675092 1.024756,0.377818 c 0.563617,0.207802 1.15107,0.440229 1.305452,0.516505 l 0.280695,0.138682 -0.02595,1.841976 -0.02595,1.841977 -1.274134,0.493827 -1.274135,0.49383 -0.234573,0.824321 c -0.129015,0.453376 -0.384397,1.18374 -0.567517,1.62303 -0.18312,0.439289 -0.493642,1.069011 -0.690051,1.399381 -0.19641,0.330369 -0.357074,0.637904 -0.357034,0.683409 4e-5,0.04551 0.228222,0.593576 0.507075,1.217936 0.27885,0.624358 0.507069,1.212182 0.507151,1.306273 8.3e-5,0.09409 -0.561299,0.72711 -1.247514,1.406706 -0.686216,0.679596 -1.280081,1.235657 -1.3197,1.235692 -0.03962,3.4e-5 -0.616838,-0.245664 -1.282708,-0.545995 l -1.210671,-0.546058 -1.04442,0.546596 c -0.574431,0.30063 -1.245458,0.620635 -1.491172,0.711124 -0.245714,0.09049 -0.804375,0.265244 -1.241472,0.388346 l -0.794718,0.223818 -0.454006,1.208501 c -0.249706,0.664675 -0.526358,1.26549 -0.614785,1.335145 l -0.160775,0.126642 -1.625187,-1.74e-4 c -0.893853,-2.8e-5 -1.688442,-0.04011 -1.765755,-0.08897 z m 3.524425,-2.085529 0.473438,-1.21351 0.498599,-0.129631 c 0.27423,-0.07129 0.749009,-0.202739 1.055066,-0.292091 0.306057,-0.08935 0.920649,-0.326614 1.365761,-0.527242 0.445112,-0.200629 1.094576,-0.537559 1.443252,-0.748736 0.348676,-0.211178 0.678518,-0.383998 0.732981,-0.384047 0.05447,-4.7e-5 0.626826,0.234534 1.271918,0.521293 l 1.172892,0.521376 0.900447,-0.902698 0.900445,-0.902698 -0.505618,-1.106553 c -0.278091,-0.608601 -0.505692,-1.190093 -0.505782,-1.292203 -8.8e-5,-0.102115 0.206683,-0.542364 0.459494,-0.978344 0.252813,-0.435981 0.597107,-1.129733 0.765099,-1.541671 0.167992,-0.411941 0.413881,-1.153436 0.546421,-1.64777 0.132539,-0.494336 0.259719,-0.917563 0.282624,-0.940507 0.0229,-0.02295 0.582285,-0.257111 1.243069,-0.520371 l 1.201425,-0.478655 0.02679,-1.264008 0.02679,-1.264008 -1.26579,-0.4857 -1.265792,-0.485702 -0.108158,-0.423911 c -0.05948,-0.233153 -0.201921,-0.742617 -0.316517,-1.132144 -0.114596,-0.389524 -0.361791,-1.040562 -0.549319,-1.446747 -0.187531,-0.406186 -0.50249,-1.003897 -0.699912,-1.32825 -0.197423,-0.324351 -0.359029,-0.680571 -0.359128,-0.791598 -9.6e-5,-0.11103 0.226022,-0.697299 0.502486,-1.302825 l 0.50266,-1.100953 -0.900244,-0.900372 -0.900246,-0.900368 -1.184728,0.522686 c -0.6516,0.28748 -1.220039,0.52272 -1.263196,0.522757 -0.04315,3.8e-5 -0.367905,-0.175355 -0.721661,-0.389766 -0.353755,-0.214409 -0.916547,-0.514571 -1.250647,-0.667024 -0.334099,-0.152454 -1.014622,-0.41325 -1.512271,-0.579549 l -0.904816,-0.302358 -1.04357,0.01299 -1.043569,0.013 -8.87e-4,-1.014234 -8.88e-4,-1.014243 -1.16382,10e-4 -1.163818,10e-4 8.72e-4,0.996863 8.72e-4,0.996862 -0.916044,0.06583 c -0.548676,0.03943 -1.217733,0.167395 -1.668305,0.319085 -0.413742,0.139292 -1.105606,0.428298 -1.537477,0.642232 -0.431871,0.213936 -0.977756,0.510938 -1.213078,0.660008 -0.235323,0.149066 -0.462919,0.271777 -0.50577,0.272686 -0.04285,9.47e-4 -0.616341,-0.234251 -1.274421,-0.52258 l -1.196511,-0.524232 -0.895962,0.903986 -0.89596,0.903984 0.499836,1.096503 c 0.27491,0.603078 0.499913,1.182976 0.500005,1.288666 9.2e-5,0.10569 -0.226107,0.587593 -0.502667,1.070895 -0.276558,0.483303 -0.622635,1.193076 -0.769061,1.577274 -0.146426,0.3842 -0.373276,1.088966 -0.504114,1.566148 -0.130836,0.477182 -0.256231,0.885982 -0.278655,0.908445 -0.02242,0.02247 -0.581415,0.256233 -1.242198,0.519487 l -1.2014255,0.478646 -0.027363,1.243014 -0.027363,1.243017 0.4334166,0.185113 c 0.2383819,0.101806 0.7523109,0.304912 1.1420649,0.451335 0.389755,0.146423 0.766389,0.302949 0.836964,0.347837 0.07058,0.04489 0.236584,0.473789 0.368911,0.953111 0.132326,0.479325 0.360946,1.185635 0.508043,1.569576 0.147099,0.383942 0.494418,1.093109 0.771822,1.575926 0.277405,0.482817 0.504447,0.964323 0.50454,1.070013 9.1e-5,0.10569 -0.223895,0.685982 -0.497749,1.289541 l -0.497914,1.097376 0.897539,0.902413 0.897544,0.902417 1.234128,-0.545248 1.23413,-0.545246 0.366451,0.226984 c 0.201547,0.12484 0.867615,0.473092 1.480148,0.773897 0.631971,0.310349 1.572404,0.669356 2.174169,0.829979 l 1.060471,0.283063 0.378881,0.959691 c 0.208384,0.527828 0.424379,1.08626 0.479989,1.24096 l 0.101115,0.281272 1.2827,-0.02948 1.2827,-0.02948 z M 22.451436,39.817153 C 21.978231,39.716379 21.291898,39.520426 20.926257,39.381709 20.560615,39.242992 20.059476,39.027002 19.812617,38.901731 19.56576,38.77646 19.09598,38.492824 18.768666,38.271425 18.441354,38.050026 17.842413,37.554886 17.43769,37.171113 17.032966,36.787339 16.474701,36.144498 16.197101,35.742572 15.919501,35.340651 15.531518,34.69203 15.334918,34.301194 15.138321,33.910359 14.859571,33.204722 14.715479,32.733109 14.571383,32.261498 14.402457,31.408886 14.340083,30.838416 l -0.113407,-1.037218 0.111592,-1.037416 c 0.06138,-0.570578 0.228723,-1.423201 0.371886,-1.894718 0.143161,-0.471516 0.442923,-1.2232 0.666139,-1.670411 0.223214,-0.44721 0.628727,-1.115884 0.901139,-1.48594 0.272412,-0.370055 0.809711,-0.969956 1.193995,-1.333105 0.384285,-0.363152 0.963777,-0.840355 1.287757,-1.060452 0.323982,-0.220096 0.839423,-0.527112 1.145422,-0.682258 0.306,-0.155148 0.870039,-0.389103 1.253424,-0.519903 0.383383,-0.130799 1.059988,-0.306991 1.503562,-0.391539 0.443577,-0.08455 1.298412,-0.154154 1.899638,-0.154678 0.601225,-5.27e-4 1.42737,0.06424 1.835877,0.143917 0.408508,0.07968 1.079252,0.260665 1.490541,0.402189 0.411289,0.141521 1.086648,0.439701 1.500797,0.662624 0.414149,0.222921 1.012082,0.604311 1.328739,0.847532 0.316659,0.243223 0.873076,0.756858 1.236481,1.141414 0.363407,0.384553 0.874403,1.019977 1.135547,1.41205 0.261147,0.392075 0.631325,1.077653 0.822622,1.523508 0.191295,0.445855 0.45277,1.21591 0.581057,1.711232 l 0.233247,0.900587 0.0013,1.467424 0.0013,1.467425 -0.230768,0.897376 c -0.126922,0.493556 -0.363606,1.210303 -0.525964,1.592772 -0.16236,0.382466 -0.434532,0.932175 -0.604828,1.221577 -0.170296,0.2894 -0.505828,0.781621 -0.745628,1.093823 -0.239798,0.312202 -0.736066,0.848835 -1.10282,1.192515 -0.366752,0.34368 -0.929065,0.803025 -1.249584,1.020766 -0.320518,0.217742 -0.833125,0.52283 -1.139124,0.677976 -0.306,0.155146 -0.870042,0.389103 -1.253424,0.519903 -0.383385,0.130799 -1.059987,0.306992 -1.503562,0.39154 -0.443576,0.08455 -1.313808,0.150961 -1.933848,0.147587 -0.679876,-0.0036 -1.468848,-0.07886 -1.98772,-0.189362 z m 4.603835,-0.965654 c 0.500819,-0.146868 1.249221,-0.436026 1.663116,-0.642569 0.413893,-0.206545 0.769186,-0.42873 0.78954,-0.493745 0.02035,-0.06501 -0.312474,-0.290552 -0.739616,-0.501192 L 27.991685,36.83101 27.049353,36.79062 26.107015,36.75024 25.781897,36.346396 c -0.178815,-0.222113 -0.512597,-0.48878 -0.741732,-0.592594 -0.229138,-0.103816 -0.576005,-0.188614 -0.770819,-0.188443 -0.194813,1.7e-4 -0.541532,0.08559 -0.770487,0.189792 -0.228956,0.104221 -0.562267,0.371466 -0.740693,0.593893 l -0.324413,0.404412 -0.928578,0.04158 -0.928579,0.04158 -0.682832,0.320457 c -0.375557,0.176251 -0.68281,0.344166 -0.682786,0.373142 2.7e-5,0.02898 0.121654,0.116267 0.270285,0.193976 l 0.270237,0.141291 0.337775,-0.199692 c 0.185777,-0.10983 0.405725,-0.173685 0.488775,-0.141898 0.08305,0.03178 0.151096,0.168201 0.151215,0.303147 1.22e-4,0.138174 -0.07713,0.277555 -0.176824,0.319074 l -0.177038,0.07374 0.404971,0.188832 c 0.222735,0.103859 0.723844,0.285979 1.113574,0.404711 0.389731,0.118734 0.936338,0.252738 1.214681,0.297787 0.278344,0.04505 1.075327,0.06514 1.771071,0.04463 l 1.264988,-0.03726 z m -5.679546,-1.105122 c -0.03361,-0.08736 -0.03373,-0.230376 -2.78e-4,-0.317803 0.03648,-0.09533 0.152153,-0.146066 0.289022,-0.126754 l 0.228184,0.0322 2.21e-4,0.253004 2.21e-4,0.253006 -0.228126,0.0326 c -0.136836,0.01954 -0.252585,-0.03097 -0.289244,-0.126248 z m 9.812523,-1.310554 0.924172,-0.94147 0.493109,-0.829538 c 0.271209,-0.456248 0.644182,-1.274263 0.828827,-1.817812 l 0.335718,-0.988274 0.103401,-1.062709 0.103391,-1.062709 -0.09207,-0.863282 C 33.834156,28.395224 33.71662,27.712214 33.623604,27.35223 33.530584,26.992247 33.27665,26.317901 33.059301,25.853683 32.841951,25.389464 32.46228,24.727321 32.215586,24.38225 31.968894,24.037178 31.502801,23.491057 31.179823,23.168647 30.856847,22.846235 30.313778,22.383851 29.973002,22.141129 29.632226,21.898406 28.969416,21.517837 28.50009,21.29542 28.030764,21.073003 27.259583,20.78912 26.786356,20.664572 l -0.860413,-0.226451 -1.41682,0.0036 -1.416822,0.0036 -0.859963,0.230609 c -0.472978,0.126834 -1.181222,0.379382 -1.573876,0.561216 -0.392651,0.181833 -0.970802,0.495253 -1.284776,0.696489 -0.313975,0.201236 -0.916987,0.695241 -1.340024,1.09779 -0.423038,0.40255 -1.020359,1.110155 -1.327381,1.572456 -0.30702,0.462301 -0.710663,1.217194 -0.896982,1.677538 -0.186318,0.460346 -0.414935,1.246925 -0.508036,1.747954 l -0.169275,0.910964 0.05354,1.264976 0.05354,1.264973 0.198089,0.70824 c 0.108948,0.389531 0.317249,0.996659 0.462888,1.349172 0.145641,0.352514 0.513924,1.012534 0.818407,1.46671 0.304483,0.454176 0.850269,1.117349 1.212858,1.473716 l 0.659249,0.647941 0.866257,-0.440187 c 0.476441,-0.242104 0.866231,-0.470294 0.866199,-0.50709 -3.2e-5,-0.0368 -0.07981,-0.1375 -0.177299,-0.223787 -0.09748,-0.08628 -0.268336,-0.173515 -0.379676,-0.193842 -0.122027,-0.02228 -0.202507,-0.116802 -0.202613,-0.237975 l -1.75e-4,-0.201016 0.284818,-0.0329 c 0.156648,-0.0181 0.395788,0.03966 0.53142,0.12837 l 0.246604,0.161274 0.246322,-0.161705 c 0.135478,-0.08894 0.374515,-0.147123 0.531196,-0.129301 l 0.284876,0.03241 1.76e-4,0.202404 1.78e-4,0.202402 -0.217109,0.03114 c -0.119409,0.01713 -0.297155,0.119751 -0.394993,0.22805 l -0.177884,0.196905 0.597594,-0.0014 0.597595,-0.0014 0.4485,-0.457457 0.4485,-0.457455 0.461796,-0.134831 0.461799,-0.134834 0.02847,-0.875195 0.02849,-0.875199 -0.747113,6.54e-4 -0.747109,6.54e-4 -0.58075,-0.19934 c -0.319421,-0.10947 -0.811373,-0.368102 -1.093234,-0.574628 -0.28186,-0.206525 -0.707585,-0.640055 -0.946053,-0.963398 -0.23847,-0.323344 -0.510172,-0.817824 -0.603787,-1.098845 l -0.170205,-0.510944 0.03439,-0.897298 c 0.01892,-0.493514 0.06231,-0.925207 0.09642,-0.959318 0.03412,-0.03412 0.318248,-0.103955 0.631394,-0.155199 l 0.569355,-0.09318 0.624864,0.100068 c 0.343675,0.05505 0.873507,0.217431 1.177407,0.360873 0.321927,0.151951 0.801067,0.51513 1.147996,0.870159 l 0.595456,0.60936 -7.04e-4,-0.804183 c -3.88e-4,-0.4423 0.06936,-1.075672 0.155018,-1.40749 0.08564,-0.33182 0.266404,-0.771668 0.401685,-0.977436 0.13528,-0.205772 0.4544,-0.496526 0.709155,-0.646124 l 0.463193,-0.271993 0.79802,-0.106073 0.798019,-0.106072 0.170535,0.141279 0.170533,0.141279 -0.05438,0.727627 c -0.02992,0.400194 -0.142044,0.925017 -0.249175,1.166271 -0.107134,0.241255 -0.345757,0.585591 -0.530275,0.765192 -0.184519,0.1796 -0.544324,0.393834 -0.799568,0.476075 -0.255242,0.08225 -0.680371,0.18006 -0.944728,0.217376 l -0.480649,0.06785 0.0022,2.537482 0.0022,2.537486 0.303351,-0.291136 0.303351,-0.291138 -7.77e-4,-0.888081 -7.79e-4,-0.888084 0.21451,-0.585894 c 0.117978,-0.322243 0.388618,-0.82031 0.601422,-1.106819 0.212804,-0.286509 0.593362,-0.690392 0.84568,-0.897518 0.275631,-0.226263 0.520749,-0.35287 0.614046,-0.317161 0.08542,0.03268 0.184681,0.135844 0.220613,0.229235 l 0.06533,0.169805 -0.244408,0.194402 c -0.134426,0.10692 -0.413245,0.352675 -0.619597,0.546122 -0.206354,0.193445 -0.512705,0.634341 -0.680778,0.979764 -0.180424,0.370811 -0.331551,0.876771 -0.368977,1.235312 l -0.06338,0.607265 1.060028,-1.048268 1.060027,-1.04827 0.19065,0.03618 c 0.109723,0.02083 0.205274,0.138555 0.225102,0.277349 l 0.03445,0.241153 -0.994775,1.008334 -0.994775,1.008333 0.615764,-0.04106 0.615766,-0.04107 0.58764,-0.288142 c 0.323203,-0.15848 0.767585,-0.468406 0.987518,-0.688722 0.219931,-0.220318 0.541332,-0.703552 0.714225,-1.073856 l 0.314345,-0.673279 0.0033,-0.756221 0.0033,-0.756219 -0.357696,-0.05902 c -0.196733,-0.03246 -0.413104,-0.0932 -0.480827,-0.134965 -0.06772,-0.04168 -0.123208,-0.161177 -0.123299,-0.265464 -9e-5,-0.104285 0.0903,-0.21841 0.200858,-0.253607 0.110562,-0.0352 0.409173,-0.03297 0.663576,0.005 l 0.462556,0.06895 0.158013,0.240701 0.158014,0.240699 -0.04229,0.986566 -0.04228,0.986566 -0.289731,0.607463 c -0.174551,0.365971 -0.54082,0.859828 -0.921335,1.24228 l -0.631604,0.634814 -0.690446,0.326498 -0.690446,0.326499 -0.996984,0.01374 -0.996984,0.01375 -0.463903,0.464716 -0.463902,0.464714 0.297581,0.107817 c 0.163668,0.0593 0.409925,0.163706 0.547238,0.232014 0.137312,0.06831 0.41681,0.294827 0.621108,0.503376 l 0.371452,0.37918 0.517851,-4.53e-4 c 0.294526,-2.58e-4 0.517811,-0.04632 0.517758,-0.106823 -5.1e-5,-0.0585 -0.159543,-0.172824 -0.354429,-0.254053 l -0.354243,-0.147674 -1.75e-4,-0.201045 -1.77e-4,-0.201046 0.331687,-2.89e-4 c 0.182429,-1.59e-4 0.431835,0.06971 0.554234,0.155296 l 0.222545,0.155587 0.248834,-0.163352 c 0.136857,-0.08985 0.377025,-0.14877 0.533704,-0.130948 l 0.284876,0.03241 1.76e-4,0.201016 c 1.06e-4,0.121174 -0.0802,0.21584 -0.202196,0.238331 -0.111305,0.02052 -0.282004,0.108049 -0.379335,0.194507 -0.09732,0.08645 -0.176913,0.218447 -0.176847,0.293311 6.6e-5,0.07486 0.07344,0.136053 0.163056,0.135974 0.08961,-7.7e-5 0.428753,0.141238 0.753637,0.314036 0.324886,0.172796 0.66869,0.4002 0.764007,0.505339 0.09532,0.105136 0.216792,0.191125 0.269942,0.191079 0.05315,-4.6e-5 0.512516,-0.423747 1.02081,-0.941554 z M 28.14853,28.935897 c -0.03361,-0.08737 -0.03373,-0.230376 -2.77e-4,-0.317802 0.03648,-0.09534 0.152152,-0.146068 0.289022,-0.126756 l 0.228184,0.0322 2.21e-4,0.253003 2.23e-4,0.253005 -0.22813,0.03261 c -0.136835,0.01954 -0.252583,-0.03097 -0.289243,-0.126248 z m -4.792585,3.675757 c -5.5e-5,-0.06403 -0.370135,-0.466468 -0.822399,-0.894322 l -0.822297,-0.777918 0.116573,-0.21828 c 0.06411,-0.120052 0.172967,-0.218329 0.241889,-0.21839 0.06892,-5.8e-5 0.487826,0.363901 0.930891,0.808801 0.443065,0.444901 0.846664,0.808873 0.896886,0.808829 0.05157,-4.5e-5 0.06067,-0.2313 0.0209,-0.531327 -0.03873,-0.292186 -0.187307,-0.791747 -0.33018,-1.110135 L 23.328436,29.900026 22.784021,29.386041 C 22.484592,29.10335 22.023166,28.775218 21.758629,28.656863 l -0.480974,-0.215193 -0.753663,-0.0058 -0.753661,-0.0059 -0.07307,0.352971 c -0.0402,0.194135 -0.02678,0.602159 0.02979,0.906721 0.05658,0.304562 0.215625,0.775785 0.35344,1.047162 0.137817,0.271379 0.455344,0.697825 0.705618,0.947661 0.250273,0.249834 0.658509,0.544035 0.907188,0.653778 0.248681,0.109743 0.644834,0.237388 0.880336,0.283655 0.235504,0.04627 0.507887,0.08903 0.605299,0.09505 0.0974,0.006 0.177068,-0.04145 0.177011,-0.105476 z m 2.726051,-4.45991 c 0.193345,-0.111621 0.420883,-0.299331 0.505644,-0.417131 0.08476,-0.1178 0.207449,-0.352477 0.272642,-0.521504 0.06519,-0.169028 0.12183,-0.500872 0.125857,-0.737435 l 0.0073,-0.430114 -0.278304,8.5e-4 c -0.153066,4.38e-4 -0.460423,0.05142 -0.683012,0.113284 -0.222589,0.06185 -0.530554,0.202091 -0.684367,0.311618 -0.153812,0.10953 -0.35438,0.343626 -0.445706,0.520216 -0.09134,0.176589 -0.200818,0.475243 -0.243312,0.663672 l -0.07726,0.342603 0.435822,-0.428477 c 0.270157,-0.265603 0.507131,-0.414807 0.62342,-0.392519 0.10319,0.01978 0.203551,0.118394 0.223046,0.219146 0.0218,0.112614 -0.123777,0.334916 -0.377841,0.577026 -0.227306,0.21661 -0.413259,0.422051 -0.413228,0.456532 3e-5,0.03448 0.148034,0.03176 0.328901,-0.0061 0.180864,-0.03781 0.487035,-0.160064 0.680379,-0.271685 z m 2.449677,-14.562098 c 0.233324,-0.05958 0.605266,-0.232193 0.826538,-0.383586 0.221272,-0.151395 0.537107,-0.493715 0.701856,-0.760711 l 0.299542,-0.485451 0.04308,-0.602902 0.04308,-0.602901 -0.177057,-0.462403 C 30.171332,10.037372 29.949429,9.667594 29.775602,9.469964 29.601774,9.272335 29.231422,9.0046461 28.9526,8.875102 l -0.506951,-0.2355357 -4.250472,0.00373 -4.250469,0.00373 -0.506537,0.2364227 c -0.278597,0.1300232 -0.648479,0.39836 -0.821961,0.596293 -0.17348,0.197934 -0.39544,0.569962 -0.493243,0.82673 l -0.177825,0.466853 0.05554,0.606551 0.05554,0.606553 0.265367,0.451908 c 0.145952,0.248549 0.461214,0.5864 0.700579,0.750781 0.239368,0.16438 0.591398,0.34358 0.782288,0.398224 0.198759,0.0569 2.047,0.101763 4.325037,0.104997 l 3.977959,0.0057 0.424225,-0.108325 z m -8.482999,-1.788692 c -0.111341,-0.02171 -0.279612,-0.107745 -0.373937,-0.19118 -0.09432,-0.08344 -0.199997,-0.280901 -0.234825,-0.438818 -0.03517,-0.159413 -0.0079,-0.391088 0.06094,-0.520869 0.06834,-0.128562 0.196474,-0.289288 0.284731,-0.357172 0.08825,-0.06788 0.310644,-0.125003 0.494197,-0.126935 l 0.333738,-0.0035 0.248404,0.267563 c 0.137058,0.147628 0.248514,0.390915 0.248646,0.542744 1.33e-4,0.15135 -0.08972,0.389746 -0.199662,0.529774 -0.109946,0.140026 -0.303378,0.273334 -0.429847,0.296238 -0.12647,0.0229 -0.321044,0.02387 -0.432384,0.0022 z m 7.870449,-0.0052 c -0.124146,-0.01861 -0.317809,-0.15067 -0.430365,-0.293505 -0.112555,-0.142837 -0.204724,-0.347634 -0.204818,-0.455111 -9.5e-5,-0.107474 0.05273,-0.294928 0.117367,-0.416562 0.06464,-0.121633 0.189748,-0.276694 0.278003,-0.344577 0.08825,-0.06788 0.297087,-0.12398 0.464069,-0.124658 0.166982,-6.52e-4 0.407333,0.07846 0.534116,0.175852 0.128285,0.09856 0.255965,0.33308 0.287908,0.528838 l 0.0574,0.351752 -0.209034,0.266224 c -0.114969,0.146421 -0.312511,0.284069 -0.438981,0.305881 -0.126471,0.02182 -0.331519,0.02445 -0.455663,0.0059 z"
       id="path228"
       sodipodi:nodetypes="cscssscsssssssssccccccccssscsscsscccssscccsssssccccssssscccssscccsssssscssssssccssscssscscssscsscccccssssssssscssscssccccccsssssscccssssssscccccsssssscccssssscccccccccsssscscccssssscscccsssssssscccccssscssccccssssssssscsssssssssssssssssscccssssssssscssssscccssssscccssscsssscsssccsssscccsssccsscccsssssssscccssssssscccsssscssssscsscsscccssccccccccccccsssccscccsscsssscccccssssscccccccssssscsssscccsscccccssscccscssscccccsscccccccssscssccccsscsscssssssssscssscccssscscsssssscsscccssssssccccsscccsssscsssssccccssccccsscccssscccssscccccsccsccsssscccsssscsscsscc" /></g></svg>
